<?xml version="1.0" encoding="UTF-8"?>
<svg version="1.1" xmlns="http://www.w3.org/2000/svg" width="300" height="300">
<path d="M0 0 C1.6471042 1.19230692 1.6471042 1.19230692 3.63671875 2.12890625 C4.56275394 3.14381789 5.45408686 4.1906766 6.32421875 5.25390625 C12.02610883 12.49488875 12.02610883 12.49488875 19.63671875 17.12890625 C19.96671875 18.11890625 20.29671875 19.10890625 20.63671875 20.12890625 C21.29671875 20.45890625 21.95671875 20.78890625 22.63671875 21.12890625 C23.26171875 23.69140625 23.26171875 23.69140625 23.63671875 26.12890625 C24.62671875 26.45890625 25.61671875 26.78890625 26.63671875 27.12890625 C26.73984375 28.03640625 26.84296875 28.94390625 26.94921875 29.87890625 C27.85072914 34.14059173 29.62087046 36.11305796 32.63671875 39.12890625 C32.76171875 42.25390625 32.76171875 42.25390625 32.63671875 45.12890625 C33.29671875 45.12890625 33.95671875 45.12890625 34.63671875 45.12890625 C34.811686 50.99626965 34.93767847 56.86206712 35.02124023 62.73144531 C35.05612462 64.72162372 35.10365169 66.71162707 35.16479492 68.70117188 C35.57171616 82.29712851 35.3226631 93.93836027 25.50219727 104.40356445 C24.5787854 105.25760864 24.5787854 105.25760864 23.63671875 106.12890625 C23.11851562 106.60972656 22.6003125 107.09054688 22.06640625 107.5859375 C11.35576791 116.92410711 2.63431975 121.98169172 -11.62890625 122.88671875 C-15.65454174 123.24327504 -18.97574373 124.47152396 -22.59765625 126.1875 C-25.9292813 127.32157011 -28.66494568 127.32483222 -32.17578125 127.25390625 C-33.33722656 127.23585937 -34.49867188 127.2178125 -35.6953125 127.19921875 C-36.57574219 127.17601562 -37.45617187 127.1528125 -38.36328125 127.12890625 C-38.36328125 127.78890625 -38.36328125 128.44890625 -38.36328125 129.12890625 C-39.08773437 129.24363281 -39.8121875 129.35835937 -40.55859375 129.4765625 C-43.45864179 130.15108621 -45.62386318 131.15896393 -48.23828125 132.56640625 C-55.85802607 136.45494859 -64.05716597 139.07011256 -72.55859375 136.453125 C-74.19470698 135.75429931 -75.78595141 134.95186095 -77.36328125 134.12890625 C-77.36328125 130.82890625 -77.36328125 127.52890625 -77.36328125 124.12890625 C-80.99328125 124.45890625 -84.62328125 124.78890625 -88.36328125 125.12890625 C-88.36328125 125.78890625 -88.36328125 126.44890625 -88.36328125 127.12890625 C-89.82701172 127.18498047 -89.82701172 127.18498047 -91.3203125 127.2421875 C-92.59261719 127.30792969 -93.86492187 127.37367188 -95.17578125 127.44140625 C-97.07263672 127.52841797 -97.07263672 127.52841797 -99.0078125 127.6171875 C-102.5851549 128.16274263 -103.18969671 128.45130211 -105.36328125 131.12890625 C-109.85766946 134.42898151 -113.55715587 137.12890625 -119.23828125 137.12890625 C-121.8144239 136.3045406 -124.04440861 135.503053 -126.36328125 134.12890625 C-127.02328125 133.79890625 -127.68328125 133.46890625 -128.36328125 133.12890625 C-128.69328125 132.13890625 -129.02328125 131.14890625 -129.36328125 130.12890625 C-130.04390625 129.44828125 -130.72453125 128.76765625 -131.42578125 128.06640625 C-132.06515625 127.42703125 -132.70453125 126.78765625 -133.36328125 126.12890625 C-133.36328125 125.46890625 -133.36328125 124.80890625 -133.36328125 124.12890625 C-139.05337368 123.9902644 -144.34383712 124.32944888 -149.96264648 125.1965332 C-161.42910853 126.94338088 -172.7273626 127.43890925 -184.30078125 127.44140625 C-185.03384491 127.44462891 -185.76690857 127.44785156 -186.52218628 127.45117188 C-202.40338328 127.49392012 -202.40338328 127.49392012 -209.36328125 125.12890625 C-209.66484131 124.48477783 -209.96640137 123.84064941 -210.27709961 123.17700195 C-211.23104341 120.92940773 -211.23104341 120.92940773 -213.66210938 119.85009766 C-216.63755842 119.05567643 -218.55026953 119.12473143 -221.58203125 119.58984375 C-223.09023437 119.80302246 -223.09023437 119.80302246 -224.62890625 120.02050781 C-225.69625 120.1800293 -226.76359375 120.33955078 -227.86328125 120.50390625 C-236.39409787 121.66287576 -244.7499131 122.42260598 -253.36328125 122.37890625 C-254.25853516 122.37552246 -255.15378906 122.37213867 -256.07617188 122.36865234 C-262.21437278 122.27781472 -262.21437278 122.27781472 -263.36328125 121.12890625 C-263.80491549 118.07532093 -263.83688422 115.17870119 -263.36328125 112.12890625 C-261.05078125 109.25390625 -261.05078125 109.25390625 -258.36328125 107.12890625 C-256.03109223 104.97445108 -256.03109223 104.97445108 -254.61328125 102.19140625 C-253.05429638 99.61908121 -251.17639561 98.8973862 -248.5703125 97.53125 C-243.09582873 94.0527727 -238.21347439 89.16958259 -233.78515625 84.4453125 C-232.10154254 82.88658222 -230.43321234 82.11708312 -228.36328125 81.12890625 C-226.50226071 79.973204 -224.64906632 78.80486859 -222.80078125 77.62890625 C-209.63025296 69.42651098 -195.92774807 62.4844501 -181.36328125 57.12890625 C-181.60884766 56.25492188 -181.60884766 56.25492188 -181.859375 55.36328125 C-182.55663865 52.27153857 -182.42399541 49.28604232 -182.36328125 46.12890625 C-181.70328125 46.12890625 -181.04328125 46.12890625 -180.36328125 46.12890625 C-180.40453125 45.18015625 -180.44578125 44.23140625 -180.48828125 43.25390625 C-180.36328125 40.12890625 -180.36328125 40.12890625 -178.36328125 38.12890625 C-177.23925924 36.1503668 -177.23925924 36.1503668 -177.05078125 33.81640625 C-176.1965928 30.47730595 -174.60583567 28.71124164 -172.36328125 26.12890625 C-170.32573121 23.34938685 -170.32573121 23.34938685 -169.55078125 20.75390625 C-167.23807066 15.64159863 -162.51755122 12.3337229 -158.29296875 8.7890625 C-156.95811459 7.64065558 -155.65210725 6.45817156 -154.37109375 5.25 C-112.9323223 -33.53243995 -44.63422347 -31.20144764 0 0 Z M-176.36328125 34.12890625 C-175.36328125 36.12890625 -175.36328125 36.12890625 -175.36328125 36.12890625 Z M30.63671875 40.12890625 C31.63671875 42.12890625 31.63671875 42.12890625 31.63671875 42.12890625 Z M-179.36328125 41.12890625 C-178.36328125 43.12890625 -178.36328125 43.12890625 -178.36328125 43.12890625 Z M32.63671875 84.12890625 C33.63671875 87.12890625 33.63671875 87.12890625 33.63671875 87.12890625 Z M31.63671875 88.12890625 C32.63671875 90.12890625 32.63671875 90.12890625 32.63671875 90.12890625 Z M-210.36328125 117.12890625 C-208.87828125 118.11890625 -208.87828125 118.11890625 -207.36328125 119.12890625 C-207.03328125 118.46890625 -206.70328125 117.80890625 -206.36328125 117.12890625 C-207.68328125 117.12890625 -209.00328125 117.12890625 -210.36328125 117.12890625 Z M-209.36328125 119.12890625 C-208.36328125 123.12890625 -208.36328125 123.12890625 -208.36328125 123.12890625 Z M-12.36328125 121.12890625 C-8.36328125 122.12890625 -8.36328125 122.12890625 -8.36328125 122.12890625 Z M-136.36328125 122.12890625 C-132.36328125 123.12890625 -132.36328125 123.12890625 -132.36328125 123.12890625 Z " fill="#0A0705" transform="translate(264.36328125,92.87109375)"/>
<path d="M0 0 C6.75044387 6.44152525 11.35762699 14.04529147 14 23 C14 25.31 14 27.62 14 30 C7.73 31.98 1.46 33.96 -5 36 C-5 36.66 -5 37.32 -5 38 C-2.525 37.505 -2.525 37.505 0 37 C3.43117962 50.29582105 3.29189245 63.55868914 -3.015625 76.00390625 C-5.58762741 80.0762434 -8.3972194 83.4657398 -13 85 C-16.97619228 85.37511248 -19.42496199 85.2699158 -23.0625 83.5625 C-30.74673267 76.8592332 -33.45968244 68.66814976 -36 59 C-36.66 59 -37.32 59 -38 59 C-33.63174574 73.51057575 -33.63174574 73.51057575 -24 85 C-20.07238404 86.96380798 -15.29175041 86.3363636 -11 86 C-5.41793794 83.81571484 -2.15743889 79.02551805 0.75 73.9375 C2.70642985 69.33988986 3.12714578 65.18927222 3.1328125 60.21875 C3.13474609 58.58486328 3.13474609 58.58486328 3.13671875 56.91796875 C3.13285156 55.79003906 3.12898437 54.66210938 3.125 53.5 C3.12886719 52.37207031 3.13273438 51.24414062 3.13671875 50.08203125 C3.13542969 48.99277344 3.13414062 47.90351563 3.1328125 46.78125 C3.13112061 45.2972168 3.13112061 45.2972168 3.12939453 43.78320312 C3.00410608 41.08831948 2.60357957 38.62530139 2 36 C4.97 35.34 7.94 34.68 11 34 C16.0852523 44.17050461 11.91720006 63.53164051 9 74 C8.68675781 75.42892578 8.68675781 75.42892578 8.3671875 76.88671875 C7.16200428 81.13023229 6.02753118 83.33019099 2.2734375 85.77734375 C0.03505533 86.91256144 -2.21715672 88.02080631 -4.48046875 89.10546875 C-13.72010596 94.07908034 -20.57127592 102.03395821 -26.18359375 110.78515625 C-29.78472212 115.17620955 -34.59114969 115.42224895 -40 116 C-43.47723096 116.24074748 -46.95541468 116.40957905 -50.4375 116.5625 C-51.35982422 116.60568359 -52.28214844 116.64886719 -53.23242188 116.69335938 C-55.48816163 116.79854931 -57.74399499 116.90069107 -60 117 C-60.43699219 117.93070312 -60.87398438 118.86140625 -61.32421875 119.8203125 C-63.49283806 123.93512863 -65.14653716 125.43102477 -69 128 C-72.80362207 128.69862446 -74.33796222 128.40983291 -77.625 126.375 C-80.23658892 123.76341108 -82.1606813 121.20177699 -84 118 C-84 117.01 -84 116.02 -84 115 C-83.34 115 -82.68 115 -82 115 C-82 114.34 -82 113.68 -82 113 C-83.32 112.67 -84.64 112.34 -86 112 C-85.175 110.989375 -84.35 109.97875 -83.5 108.9375 C-79.650962 102.7570447 -80.08061906 96.01593162 -81 89 C-82.88635036 82.81311693 -86.30585181 78.97456678 -91.9296875 75.86328125 C-94.99034473 74.58704493 -97.69685802 74.20644637 -101 74 C-98.10733702 70.88036964 -95.20937517 68.74932198 -91.53515625 66.6171875 C-90.48779297 66.00746094 -89.44042969 65.39773437 -88.36132812 64.76953125 C-87.27271484 64.14433594 -86.18410156 63.51914063 -85.0625 62.875 C-83.97775391 62.24207031 -82.89300781 61.60914063 -81.77539062 60.95703125 C-72.86387969 55.79744717 -66.48470472 52.75959284 -56 54 C-48.60835561 56.2226623 -43.67110702 60.23934748 -40 67 C-37.77133384 71.99966934 -36.57494089 76.47423162 -37 82 C-36.34 82 -35.68 82 -35 82 C-36.12632841 72.21607264 -37.83630783 62.94964837 -45.875 56.5 C-52.11972069 52.3679792 -58.63222208 51.1163443 -66 52 C-74.90008039 53.83104521 -82.49848994 59.10385164 -90.0949707 63.84667969 C-90.92859131 64.36520508 -91.76221191 64.88373047 -92.62109375 65.41796875 C-93.3680249 65.89000732 -94.11495605 66.3620459 -94.88452148 66.84838867 C-96.93889388 67.96673542 -98.71475518 68.55174168 -101 69 C-106 63.87804878 -106 63.87804878 -106 59.9375 C-103.56410256 52.78205128 -103.56410256 52.78205128 -100 51 C-101.74023438 50.92652344 -101.74023438 50.92652344 -103.515625 50.8515625 C-128.29328882 49.70671118 -128.29328882 49.70671118 -132 46 C-131.78731946 36.21669518 -126.33061845 26.91977598 -121 19 C-120.24332031 19.32226562 -119.48664063 19.64453125 -118.70703125 19.9765625 C-101.80335056 24.64333209 -81.82447728 20.28836445 -65 17 C-63.82324707 16.77505859 -62.64649414 16.55011719 -61.43408203 16.31835938 C-40.5561239 12.29622919 -19.8746894 7.6649826 0 0 Z " fill="#824A14" transform="translate(219,98)"/>
<path d="M0 0 C27.31312452 -1.62793457 55.81920674 8.97327871 76.48046875 26.73046875 C77.31191406 27.47941406 78.14335937 28.22835937 79 29 C79.77988281 29.69738281 80.55976563 30.39476563 81.36328125 31.11328125 C93.9451222 42.99975275 105.1775977 60.50968826 106.11572266 78.1796875 C106.24202117 83.12483907 106.15814291 88.05656993 106 93 C105.67 93 105.34 93 105 93 C104.01 88.545 104.01 88.545 103 84 C101.35 83.67 99.7 83.34 98 83 C91.02260973 91.83802767 91.7194548 102.183424 92 113 C94.38821578 113.63616374 94.38821578 113.63616374 97 114 C99.30504044 112.66846734 99.30504044 112.66846734 101 111 C98.05792346 122.76830616 87.85060116 130.84535708 78 137 C73.83420889 138.84256145 70.53835202 139.216112 66 139 C66 136 66 136 67.72265625 134.125 C68.49480469 133.42375 69.26695312 132.7225 70.0625 132 C82.28153908 120.14542205 88.76820094 104.85898247 89.30078125 87.94921875 C89.31920367 85.86205681 89.32280804 83.77471778 89.3125 81.6875 C89.31121094 80.59896729 89.30992187 79.51043457 89.30859375 78.38891602 C89.2117383 70.25729571 88.35038108 62.82061322 86 55 C85.34 55 84.68 55 84 55 C84.20496094 55.58007812 84.40992188 56.16015625 84.62109375 56.7578125 C84.89050781 57.53898437 85.15992188 58.32015625 85.4375 59.125 C85.70433594 59.89070313 85.97117187 60.65640625 86.24609375 61.4453125 C91.77594784 80.18378179 87.94637359 100.83044161 78.97265625 117.7109375 C71.67667579 129.87572077 61.10202953 140.37575518 47 144 C44.23052303 144.27019287 41.78926973 144.20661257 39 144 C39.37511719 143.5875 39.75023437 143.175 40.13671875 142.75 C45.43405724 136.77214699 49.85518407 130.79933067 52 123 C51.34 123 50.68 123 50 123 C49.690625 124.27875 49.38125 125.5575 49.0625 126.875 C45.47945447 137.34472478 36.92438077 143.41123456 27.5 148.3046875 C20.16002789 151.85998649 13.28120905 155.16227495 5 154 C2.4375 152.5625 2.4375 152.5625 1 150 C0.03335196 141.67325983 4.8718801 135.25143478 9.56640625 128.87109375 C15.32092232 121.78541252 22.74849065 116.5018587 30.9375 112.5625 C35.98329087 109.87321039 37.31097879 106.27283272 39 101 C39.28488281 100.21753906 39.56976563 99.43507813 39.86328125 98.62890625 C42.18936702 92.09161307 43.12846504 86.03309844 43.09765625 79.0703125 C43.09443359 77.78125 43.09121094 76.4921875 43.08789062 75.1640625 C43.07953733 73.81770764 43.07107241 72.47135348 43.0625 71.125 C43.0574783 69.75520996 43.05291657 68.38541815 43.04882812 67.015625 C43.03707254 63.6770381 43.02063964 60.33854185 43 57 C43.99 57 44.98 57 46 57 C43.82145411 38.66119577 35.22791411 23.81708202 20.80078125 12.234375 C14.33445538 7.44450398 7.37821184 4.15713453 0 1 C0 0.67 0 0.34 0 0 Z " fill="#E6EBF5" transform="translate(190,73)"/>
<path d="M0 0 C6.75044387 6.44152525 11.35762699 14.04529147 14 23 C14.04387939 25.33292071 14.05028772 27.66720863 14 30 C3.50782749 33.20411776 -6.98692901 36.09199615 -17.69628906 38.47314453 C-20.05351437 39.01223866 -22.39683956 39.59512291 -24.7421875 40.18359375 C-51.51671228 46.70329796 -79.17221887 49.48042411 -106.6875 49.4375 C-107.57193787 49.43763092 -108.45637573 49.43776184 -109.36761475 49.43789673 C-111.87443508 49.43118051 -114.38014845 49.40619893 -116.88671875 49.37109375 C-117.62239578 49.36550446 -118.35807281 49.35991516 -119.11604309 49.35415649 C-123.42643035 49.25564595 -126.98704759 48.57240453 -131 47 C-132.52566209 42.30634545 -131.23649449 39.03335267 -129.375 34.6875 C-129.10155762 34.02613037 -128.82811523 33.36476074 -128.54638672 32.68334961 C-126.47014745 27.78849832 -124.03642218 23.37602019 -121 19 C-120.24332031 19.32226562 -119.48664063 19.64453125 -118.70703125 19.9765625 C-101.80335056 24.64333209 -81.82447728 20.28836445 -65 17 C-63.82324707 16.77505859 -62.64649414 16.55011719 -61.43408203 16.31835938 C-40.5561239 12.29622919 -19.8746894 7.6649826 0 0 Z " fill="#FBE590" transform="translate(219,98)"/>
<path d="M0 0 C3.85538095 3.13080063 7.45086376 6.52771513 11 10 C10 12 10 12 7.89648438 12.86621094 C6.97158203 13.15270508 6.04667969 13.43919922 5.09375 13.734375 C3.53285645 14.22006958 3.53285645 14.22006958 1.94042969 14.71557617 C0.80508789 15.05693604 -0.33025391 15.3982959 -1.5 15.75 C-2.67401367 16.10489502 -3.84802734 16.45979004 -5.05761719 16.82543945 C-25.803481 22.99834817 -46.69031574 27.26582802 -68.0625 30.54589844 C-70.23578945 30.8818624 -72.40455177 31.2474101 -74.5703125 31.62890625 C-79.958532 32.21191405 -85.33489492 32.14369426 -90.75 32.125 C-91.88566406 32.12886719 -93.02132812 32.13273437 -94.19140625 32.13671875 C-95.27808594 32.13542969 -96.36476563 32.13414063 -97.484375 32.1328125 C-98.47147461 32.13168457 -99.45857422 32.13055664 -100.47558594 32.12939453 C-103 32 -103 32 -106 31 C-104.94120834 22.20268693 -96.52556028 16.08672175 -89.9375 10.875 C-82.86064741 5.4722189 -75.08281852 1.65565876 -67 -2 C-66.12859375 -2.40992187 -65.2571875 -2.81984375 -64.359375 -3.2421875 C-56.60906112 -6.64283543 -48.23936728 -8.22189946 -40 -10 C-38.66582031 -10.29390625 -38.66582031 -10.29390625 -37.3046875 -10.59375 C-23.49435963 -13.02811288 -11.20353349 -7.82632156 0 0 Z " fill="#EB6C1E" transform="translate(207,85)"/>
<path d="M0 0 C4.84008827 2.73130383 7.82974455 6.24995442 10.625 11 C10.99882812 11.60199219 11.37265625 12.20398438 11.7578125 12.82421875 C13.96158176 18.35349567 13.4630575 25.72202826 12.0078125 31.4140625 C7.86824051 40.60904098 -0.27706426 46.3706348 -9.375 50 C-17.89357435 53.19214551 -26.33217481 55.74039649 -35.375 57 C-35.0140625 56.52433594 -34.653125 56.04867187 -34.28125 55.55859375 C-29.52469602 48.38412482 -29.26218221 41.40998364 -30.375 33 C-32.26402224 26.81301892 -35.67965027 22.9752315 -41.3046875 19.86328125 C-44.36534473 18.58704493 -47.07185802 18.20644637 -50.375 18 C-47.48233702 14.88036964 -44.58437517 12.74932198 -40.91015625 10.6171875 C-39.86279297 10.00746094 -38.81542969 9.39773437 -37.73632812 8.76953125 C-36.64771484 8.14433594 -35.55910156 7.51914063 -34.4375 6.875 C-33.35275391 6.24207031 -32.26800781 5.60914063 -31.15039062 4.95703125 C-20.88140945 -0.98850057 -11.69490949 -5.25474753 0 0 Z " fill="#FBE590" transform="translate(168.375,154)"/>
<path d="M0 0 C5.87936462 2.28384767 8.97612053 6.83832294 11.76586914 12.32128906 C14.07277264 19.76565249 12.78290013 25.17416631 9.54321289 32.02441406 C5.30285691 37.50425872 -0.17885168 38.8032766 -6.72827148 39.69042969 C-7.61708008 39.79548828 -8.50588867 39.90054688 -9.42163086 40.00878906 C-10.72583984 40.1837793 -10.72583984 40.1837793 -12.05639648 40.36230469 C-23.59849566 41.86337122 -35.03385287 42.50260205 -46.67163086 42.50878906 C-47.91106445 42.52103516 -49.15049805 42.53328125 -50.42749023 42.54589844 C-51.62051758 42.54783203 -52.81354492 42.54976562 -54.04272461 42.55175781 C-55.11321045 42.5558667 -56.18369629 42.55997559 -57.28662109 42.56420898 C-60.31029984 42.31501157 -62.49849555 41.59728672 -65.23413086 40.32128906 C-63.93611002 37.36291762 -62.7361298 35.6380787 -60.13647461 33.72753906 C-59.50894287 33.260979 -58.88141113 32.79441895 -58.23486328 32.3137207 C-57.55399658 31.82121826 -56.87312988 31.32871582 -56.17163086 30.82128906 C-55.45918213 30.29720459 -54.7467334 29.77312012 -54.01269531 29.2331543 C-51.76135323 27.58423895 -49.49999313 25.95018357 -47.23413086 24.32128906 C-46.53739258 23.82000488 -45.8406543 23.3187207 -45.12280273 22.80224609 C-41.66059427 20.32044974 -38.18199267 17.86472722 -34.68334961 15.43457031 C-31.50549996 13.22695855 -28.37351267 10.96553278 -25.25366211 8.67675781 C-23.58080125 7.47449476 -21.90763083 6.27266233 -20.23413086 5.07128906 C-19.46931396 4.49773682 -18.70449707 3.92418457 -17.91650391 3.33325195 C-12.01616748 -0.84607281 -7.03905668 -2.13840865 0 0 Z " fill="#EB6C1D" transform="translate(124.234130859375,174.6787109375)"/>
<path d="M0 0 C3.0625 0.375 3.0625 0.375 4.875 2.1875 C9.3094111 10.35615203 7.2009905 20.74466332 5.0625 29.375 C6.3825 28.385 7.7025 27.395 9.0625 26.375 C9.7225 26.705 10.3825 27.035 11.0625 27.375 C8.01092463 35.55940951 4.42284404 42.47626126 -0.9375 49.375 C-1.40929687 50.01179688 -1.88109375 50.64859375 -2.3671875 51.3046875 C-8.48533939 59.08199922 -17.38584571 64.81652117 -26.9375 67.375 C-29.70819312 67.64937058 -32.14655873 67.58173639 -34.9375 67.375 C-34.56238281 66.9625 -34.18726563 66.55 -33.80078125 66.125 C-28.50344276 60.14714699 -24.08231593 54.17433067 -21.9375 46.375 C-22.5975 46.375 -23.2575 46.375 -23.9375 46.375 C-24.246875 47.65375 -24.55625 48.9325 -24.875 50.25 C-28.45804553 60.71972478 -37.01311923 66.78623456 -46.4375 71.6796875 C-53.77747211 75.23498649 -60.65629095 78.53727495 -68.9375 77.375 C-71.5 75.9375 -71.5 75.9375 -72.9375 73.375 C-73.60263218 66.44653981 -70.5683599 61.04235697 -66.9375 55.375 C-66.31875 55.87 -65.7 56.365 -65.0625 56.875 C-59.63819984 59.47866408 -54.71835392 59.1334147 -48.97265625 57.56640625 C-36.16066391 52.80107062 -29.03812999 44.31365009 -22.9375 32.375 C-19.3075 33.035 -15.6775 33.695 -11.9375 34.375 C-11.98970703 32.81652344 -11.98970703 32.81652344 -12.04296875 31.2265625 C-12.29694981 20.43236754 -11.79078177 11.21794422 -4.9375 2.375 C-2.9375 0.375 -2.9375 0.375 0 0 Z " fill="#C6CBD4" transform="translate(263.9375,149.625)"/>
<path d="M0 0 C0 0.66 0 1.32 0 2 C2.475 1.505 2.475 1.505 5 1 C8.43117962 14.29582105 8.29189245 27.55868914 1.984375 40.00390625 C-0.58762741 44.0762434 -3.3972194 47.4657398 -8 49 C-11.97619228 49.37511248 -14.42496199 49.2699158 -18.0625 47.5625 C-25.03647517 41.47881953 -27.7764979 34.57120683 -30.04296875 25.72265625 C-30.7990659 22.69988563 -30.7990659 22.69988563 -34 21 C-35.28317892 17.15046324 -35.06643637 14.05261865 -35 10 C-35.95664551 10.14622803 -36.91329102 10.29245605 -37.89892578 10.44311523 C-41.51756475 10.99472759 -45.13727808 11.53900496 -48.75732422 12.08129883 C-50.3110022 12.31503941 -51.86439963 12.55065413 -53.41748047 12.78833008 C-67.29532016 14.90992613 -80.92923744 16.23193565 -95 16 C-95 15.67 -95 15.34 -95 15 C-100.94 14.67 -106.88 14.34 -113 14 C-113 13.67 -113 13.34 -113 13 C-112.18474854 12.99589111 -111.36949707 12.99178223 -110.52954102 12.98754883 C-75.73929028 12.68640754 -41.79288017 8.64150457 -7.94628906 0.56323242 C-5.20864506 0.03988599 -2.77716227 -0.11158816 0 0 Z " fill="#090908" transform="translate(214,134)"/>
<path d="M0 0 C7.83280072 2.15018059 11.23729667 7.20983607 15.1875 13.875 C17.81198544 19.12397088 16.69738903 27.02665225 15.1875 32.5 C9.89830286 38.78092161 -0.37648113 38.9429397 -8 40 C-9.71413086 40.25330078 -9.71413086 40.25330078 -11.46289062 40.51171875 C-21.81154035 41.99761871 -32.16242815 43.04318254 -42.625 42.9375 C-43.80707031 42.92847656 -44.98914062 42.91945312 -46.20703125 42.91015625 C-47.06683594 42.89855469 -47.92664062 42.88695312 -48.8125 42.875 C-48.52007208 37.38153258 -45.1866114 34.50160956 -41.5625 30.75 C-40.93206787 30.08911377 -40.30163574 29.42822754 -39.65209961 28.74731445 C-29.40320831 18.16273 -18.19272509 9.802688 -5.8125 1.875 C-2.8125 -0.125 -2.8125 -0.125 0 0 Z " fill="#CC5D17" transform="translate(52.8125,169.125)"/>
<path d="M0 0 C0.15855469 1.02738281 0.31710938 2.05476562 0.48046875 3.11328125 C1.77286953 10.95492063 3.35174979 17.81374148 7.01171875 24.9609375 C8 27 8 27 8 29 C6.29101562 30.41699219 6.29101562 30.41699219 3.90625 32.046875 C3.04 32.645 2.17375 33.243125 1.28125 33.859375 C0.3634375 34.48328125 -0.554375 35.1071875 -1.5 35.75 C-3.28215454 36.9726409 -5.06341523 38.19658578 -6.84375 39.421875 C-7.71128906 40.01677734 -8.57882813 40.61167969 -9.47265625 41.22460938 C-12.53004849 43.37234473 -15.48790511 45.63212347 -18.42382812 47.94238281 C-20 49 -20 49 -22 49 C-21.93039063 48.12859375 -21.86078125 47.2571875 -21.7890625 46.359375 C-21.37616082 37.27553795 -22.65167761 30.49461228 -28 23 C-31.17869228 20.16468497 -33.96808457 18.382371 -38 17 C-34.34330345 12.51825493 -29.61313451 10.74123671 -24.4375 8.5 C-23.09473999 7.90844116 -23.09473999 7.90844116 -21.72485352 7.30493164 C-4.99342092 0 -4.99342092 0 0 0 Z " fill="#D8C67D" transform="translate(93,151)"/>
<path d="M0 0 C4.09858639 4.3921191 3.48802704 8.79763532 3.33984375 14.5234375 C2.58719138 22.22298473 -1.21113979 26.98035059 -6.75390625 32.1875 C-17.03030662 40.4801083 -32.15725882 44.21109426 -45 46 C-44.65066406 45.48953125 -44.30132812 44.9790625 -43.94140625 44.453125 C-39.9343616 38.05093468 -39.13929456 32.48391708 -39 25 C-38.34 26.32 -37.68 27.64 -37 29 C-16.59789375 21.22523282 -16.59789375 21.22523282 -2 6 C-0.68868374 2.7417112 -0.68868374 2.7417112 0 0 Z " fill="#D8C67D" transform="translate(178,165)"/>
<path d="M0 0 C3.0625 0.375 3.0625 0.375 4.875 2.1875 C9.15747358 10.07626712 7.48474669 20.27709723 5.17578125 28.59375 C3.4365717 32.93872263 0.94135342 36.68355069 -2.9375 39.375 C-5.5546875 39.69140625 -5.5546875 39.69140625 -7.9375 39.375 C-12.75979277 34.38048249 -12.21030665 28.57495496 -12.15625 22.02734375 C-11.71280707 14.62343055 -8.90118761 1.13632182 0 0 Z " fill="#F7E28F" transform="translate(263.9375,149.625)"/>
<path d="M0 0 C0.33 0 0.66 0 1 0 C1.63599737 6.86877163 0.28726918 12.45952906 -4 18 C-9.49889213 21.95497242 -14.54446539 22.90228271 -21.1875 23.6875 C-22.49170898 23.86249023 -22.49170898 23.86249023 -23.82226562 24.04101562 C-35.38549339 25.54482996 -46.84090589 26.18132463 -58.5 26.1875 C-59.7478125 26.19974609 -60.995625 26.21199219 -62.28125 26.22460938 C-63.4775 26.22654297 -64.67375 26.22847656 -65.90625 26.23046875 C-66.98197266 26.23457764 -68.05769531 26.23868652 -69.16601562 26.24291992 C-71.9735823 26.00226444 -73.61596673 25.45119758 -76 24 C-70.2570961 22.81157814 -64.50178942 21.72325055 -58.7265625 20.703125 C-43.51252539 17.9989068 -28.66404353 14.98077975 -14 10 C-12.73196759 9.57753397 -11.46374877 9.1556269 -10.1953125 8.734375 C-8.16527847 8.05610481 -6.13835259 7.36832116 -4.1171875 6.6640625 C-2 6 -2 6 0 6 C0 4.02 0 2.04 0 0 Z " fill="#C95C17" transform="translate(136,191)"/>
<path d="M0 0 C6.00397511 4.61844239 8.84384845 10.43939822 10.83203125 17.6640625 C11.17326908 20.81054116 11.09637492 23.49193842 10.83203125 26.6640625 C10.17203125 26.6640625 9.51203125 26.6640625 8.83203125 26.6640625 C8.68507813 25.83003906 8.538125 24.99601562 8.38671875 24.13671875 C6.6955286 15.65160955 4.77740903 8.41056082 -2.359375 3.00390625 C-8.73237974 -0.66849937 -14.9509089 -1.78784013 -22.16796875 -0.3359375 C-33.62495681 3.69319467 -44.04896288 11.09747358 -54.16796875 17.6640625 C-52.92402344 17.95152344 -51.68007812 18.23898438 -50.3984375 18.53515625 C-44.78931151 19.94701069 -41.02178501 22.100761 -37.5859375 26.8515625 C-34.02758941 32.81155048 -34.02758941 32.81155048 -34.54296875 35.94140625 C-34.74921875 36.50988281 -34.95546875 37.07835937 -35.16796875 37.6640625 C-35.82796875 37.6640625 -36.48796875 37.6640625 -37.16796875 37.6640625 C-37.58046875 36.4471875 -37.99296875 35.2303125 -38.41796875 33.9765625 C-40.39515827 28.79559368 -42.43020515 25.65220259 -47.35546875 22.8515625 C-52.5535804 21.23247854 -57.32653863 20.35303331 -62.43530273 22.71020508 C-64.80642709 24.20336489 -67.04855765 25.79905687 -69.29296875 27.4765625 C-70.10612549 28.05881592 -70.91928223 28.64106934 -71.75708008 29.2409668 C-74.24291125 31.02834809 -76.70615506 32.84379439 -79.16796875 34.6640625 C-80.68908436 35.76963365 -82.21117467 36.87386534 -83.734375 37.9765625 C-87.23016309 40.5154684 -90.70477212 43.08090089 -94.16796875 45.6640625 C-94.82796875 45.3340625 -95.48796875 45.0040625 -96.16796875 44.6640625 C-94.96290059 41.04885803 -93.88018203 40.48024058 -90.80078125 38.34375 C-89.47240234 37.41755859 -89.47240234 37.41755859 -88.1171875 36.47265625 C-86.71919922 35.51552734 -86.71919922 35.51552734 -85.29296875 34.5390625 C-83.90658203 33.57033203 -83.90658203 33.57033203 -82.4921875 32.58203125 C-75.59319196 27.80580357 -75.59319196 27.80580357 -72.16796875 26.6640625 C-72.80025391 25.36082031 -72.80025391 25.36082031 -73.4453125 24.03125 C-74.26708984 22.30261719 -74.26708984 22.30261719 -75.10546875 20.5390625 C-75.92337891 18.83363281 -75.92337891 18.83363281 -76.7578125 17.09375 C-78.07828065 13.88219589 -78.75581096 11.09697171 -79.16796875 7.6640625 C-78.50796875 7.6640625 -77.84796875 7.6640625 -77.16796875 7.6640625 C-76.83796875 7.0040625 -76.50796875 6.3440625 -76.16796875 5.6640625 C-75.16397351 8.28759768 -74.1646243 10.91274045 -73.16796875 13.5390625 C-72.88179687 14.28542969 -72.595625 15.03179687 -72.30078125 15.80078125 C-70.16796875 21.4375 -70.16796875 21.4375 -70.16796875 23.6640625 C-69.39710937 23.15875 -68.62625 22.6534375 -67.83203125 22.1328125 C-66.32769531 21.15828125 -66.32769531 21.15828125 -64.79296875 20.1640625 C-63.79523438 19.514375 -62.7975 18.8646875 -61.76953125 18.1953125 C-59.16796875 16.6640625 -59.16796875 16.6640625 -57.16796875 16.6640625 C-59.13577136 13.11648129 -59.13577136 13.11648129 -61.91796875 10.2265625 C-63.16796875 8.6640625 -63.16796875 8.6640625 -62.98046875 5.7265625 C-62.28420405 3.10218017 -61.51748832 1.00322975 -60.16796875 -1.3359375 C-59.17796875 -1.0059375 -58.18796875 -0.6759375 -57.16796875 -0.3359375 C-57.69390625 0.499375 -57.69390625 0.499375 -58.23046875 1.3515625 C-59.42401919 4.29565358 -59.1423645 5.66592173 -58.16796875 8.6640625 C-56.70025604 10.92860323 -56.70025604 10.92860323 -55.16796875 12.6640625 C-51.73323497 12.00987462 -49.24644367 10.65726061 -46.28125 8.828125 C-45.34216797 8.25835937 -44.40308594 7.68859375 -43.43554688 7.1015625 C-41.48316652 5.90406814 -39.5326069 4.70359962 -37.58398438 3.5 C-25.32762304 -3.91898355 -13.11595379 -8.08226342 0 0 Z " fill="#110C05" transform="translate(173.16796875,153.3359375)"/>
<path d="M0 0 C0.99 0.33 1.98 0.66 3 1 C2.46890625 1.58007812 1.9378125 2.16015625 1.390625 2.7578125 C-3.25860277 7.82217422 -3.25860277 7.82217422 -7.1875 13.4375 C-9.88446781 17.25045449 -12.40271136 17.70283002 -16.85546875 18.53125 C-22.53856286 19.31340895 -28.27483851 19.18429083 -34 19.1875 C-35.14984375 19.19974609 -36.2996875 19.21199219 -37.484375 19.22460938 C-43.38077662 19.23479901 -48.44577598 19.04246901 -54 17 C-53 15 -53 15 -49.53515625 13.703125 C-48.04548355 13.21503308 -46.55451384 12.7308879 -45.0625 12.25 C-38.14103658 9.93147308 -32.03429258 7.18100862 -26 3 C-26 3.66 -26 4.32 -26 5 C-12.14606681 4.41420644 -12.14606681 4.41420644 0 0 Z " fill="#683805" transform="translate(200,195)"/>
<path d="M0 0 C3.43117962 13.29582105 3.29189245 26.55868914 -3.015625 39.00390625 C-5.58762741 43.0762434 -8.3972194 46.4657398 -13 48 C-16.97619228 48.37511248 -19.42496199 48.2699158 -23.0625 46.5625 C-31.81370434 38.92847068 -35.12635261 28.20550287 -37 17 C-37.08672771 15.41849475 -37.13031501 13.83387257 -37.125 12.25 C-37.12757813 11.47140625 -37.13015625 10.6928125 -37.1328125 9.890625 C-37 8 -37 8 -36 7 C-34.33382885 6.95936168 -32.66611905 6.957279 -31 7 C-30.97421875 7.85980469 -30.9484375 8.71960938 -30.921875 9.60546875 C-30.41555529 20.15763174 -29.35759545 30.8907445 -22 39 C-18.86128812 40.56935594 -16.46144178 40.35201103 -13 40 C-7.44930469 36.25650781 -5.40228909 30.31792206 -4 24 C-3.42479069 16.2905974 -3.75478862 8.62691972 -5 1 C-3 0 -3 0 0 0 Z " fill="#EDEDED" transform="translate(219,135)"/>
<path d="M0 0 C0.33 0 0.66 0 1 0 C1 2.97 1 5.94 1 9 C0.01 9 -0.98 9 -2 9 C-1.505 9.99 -1.505 9.99 -1 11 C-0.72542388 15.28588367 -0.76819347 19.58134093 -0.75 23.875 C-0.729375 25.05320313 -0.70875 26.23140625 -0.6875 27.4453125 C-0.6424409 37.67372815 -2.5446902 46.70332603 -6.1875 56.25 C-6.53167969 57.16265625 -6.87585938 58.0753125 -7.23046875 59.015625 C-7.48441406 59.67046875 -7.73835938 60.3253125 -8 61 C-8.99 61 -9.98 61 -11 61 C-10.81824219 60.45214844 -10.63648438 59.90429688 -10.44921875 59.33984375 C-9.57241096 56.57452687 -8.77573074 53.79542609 -8 51 C-7.57074219 49.453125 -7.57074219 49.453125 -7.1328125 47.875 C-4.22392339 35.68536946 -4.71169666 23.45618284 -5 11 C-7.97 11.66 -10.94 12.32 -14 13 C-13.67620361 13.70866211 -13.35240723 14.41732422 -13.01879883 15.14746094 C-11.26332308 20.06262478 -11.67248847 25.08003039 -11.6875 30.25 C-11.67138672 31.34441406 -11.65527344 32.43882812 -11.63867188 33.56640625 C-11.63205252 44.62072187 -14.01487998 52.52852681 -21.5625 60.8125 C-25.65822627 64.48815178 -29.83576637 64.51866455 -35.140625 64.4765625 C-41.19878553 63.46686908 -44.56092462 58.95086892 -48.04296875 54.23046875 C-50.17852261 50.70531297 -51.57909596 47.32911544 -52.875 43.4375 C-53.1121875 42.79103516 -53.349375 42.14457031 -53.59375 41.47851562 C-54.68890792 38.23592455 -55.10487501 36.35855915 -54.1328125 33.03515625 C-53.75898438 32.36355469 -53.38515625 31.69195312 -53 31 C-52.67 31 -52.34 31 -52 31 C-51.75765625 31.99 -51.5153125 32.98 -51.265625 34 C-49.47467992 41.12319999 -47.64300385 47.56402654 -44 54 C-43.67257813 54.70382813 -43.34515625 55.40765625 -43.0078125 56.1328125 C-41.72254104 58.51405188 -40.46591848 58.99822062 -38 60 C-37.34 60.33 -36.68 60.66 -36 61 C-30.98646089 61.37838031 -27.99517885 61.13135639 -24 58 C-18.06154461 52.06154461 -15.21026044 43.06480302 -14.8671875 34.80078125 C-14.88285826 27.80378875 -15.10414011 20.94291411 -16 14 C-17.65 14.33 -19.3 14.66 -21 15 C-21 14.34 -21 13.68 -21 13 C-21.66 12.67 -22.32 12.34 -23 12 C-20.62592408 11.35060264 -18.2508361 10.70539947 -15.875 10.0625 C-15.20984375 9.88009766 -14.5446875 9.69769531 -13.859375 9.50976562 C-9.92554773 8.44917494 -6.03026435 7.59637868 -2 7 C-1.34 4.69 -0.68 2.38 0 0 Z " fill="#1C1814" transform="translate(235,121)"/>
<path d="M0 0 C0.99 0.33 1.98 0.66 3 1 C3 6.94 3 12.88 3 19 C7.72324645 20.53765777 7.72324645 20.53765777 10.3125 18.5625 C10.869375 18.046875 11.42625 17.53125 12 17 C9.05792346 28.76830616 -1.14939884 36.84535708 -11 43 C-15.16579111 44.84256145 -18.46164798 45.216112 -23 45 C-23 42 -23 42 -21.27734375 40.125 C-20.50519531 39.42375 -19.73304688 38.7225 -18.9375 38 C-8.35648253 27.73458588 -1.88758864 14.56542279 0 0 Z " fill="#C4C9D2" transform="translate(279,167)"/>
<path d="M0 0 C3.21014563 0.83463786 5.45808789 1.85153521 8.125 3.8125 C8.125 4.4725 8.125 5.1325 8.125 5.8125 C6.97386719 6.39515625 5.82273438 6.9778125 4.63671875 7.578125 C-11.23113546 15.70892792 -26.40317362 24.64745606 -40.30859375 35.8515625 C-42.4633694 37.49798164 -44.40521423 38.72649491 -46.875 39.8125 C-45.62819511 29.8380609 -30.27716743 19.26982907 -22.76904297 13.26171875 C-17.3600059 9.12301753 -11.61723263 5.46598641 -5.875 1.8125 C-2.875 -0.1875 -2.875 -0.1875 0 0 Z " fill="#E86A1D" transform="translate(52.875,169.1875)"/>
<path d="M0 0 C0.33 0 0.66 0 1 0 C1 1.98 1 3.96 1 6 C1.66 6 2.32 6 3 6 C2.01650883 14.26132583 -1.69456462 20.58507733 -8.171875 25.72265625 C-16.14216537 31.21732613 -24.86261846 34.07560943 -34 37 C-33.07960937 37.30679688 -32.15921875 37.61359375 -31.2109375 37.9296875 C-28.140625 38.953125 -25.0703125 39.9765625 -22 41 C-24.18331677 46.21570117 -26.36592298 48.91061532 -31 52 C-34.80362207 52.69862446 -36.33796222 52.40983291 -39.625 50.375 C-42.23658892 47.76341108 -44.1606813 45.20177699 -46 42 C-46 41.01 -46 40.02 -46 39 C-45.34 39 -44.68 39 -44 39 C-44 38.34 -44 37.68 -44 37 C-44.66 36.67 -45.32 36.34 -46 36 C-45.1028125 35.78085938 -44.205625 35.56171875 -43.28125 35.3359375 C-20.66913187 29.8918376 -20.66913187 29.8918376 -3.54296875 14.9609375 C-0.86885439 10.21745548 -0.24920995 5.38293497 0 0 Z " fill="#14110B" transform="translate(181,174)"/>
<path d="M0 0 C0.495 5.94 0.495 5.94 1 12 C-0.07636719 12.30292969 -1.15273437 12.60585937 -2.26171875 12.91796875 C-3.73724923 13.34020321 -5.21248913 13.76345393 -6.6875 14.1875 C-7.45755371 14.40656006 -8.22760742 14.62562012 -9.02099609 14.85131836 C-13.91336561 16.27830168 -18.46470073 18.00696543 -23.125 20.0625 C-28.31201346 22.1528859 -28.31201346 22.1528859 -31.28515625 21.4921875 C-33.90260519 20.04103511 -35.89389691 18.10610309 -38 16 C-30.67624121 11.25095985 -23.18344175 7.78925158 -15.0625 4.625 C-13.37930664 3.95017578 -13.37930664 3.95017578 -11.66210938 3.26171875 C-3.40867211 0 -3.40867211 0 0 0 Z " fill="#F4DF8D" transform="translate(93,151)"/>
<path d="M0 0 C5.94 0 11.88 0 18 0 C17.34 1.98 16.68 3.96 16 6 C14.93051435 8.99706929 14.93051435 8.99706929 15 12 C17.37505218 14.70848923 17.37505218 14.70848923 20 17 C20 17.99 20 18.98 20 20 C17.6640625 21.82421875 17.6640625 21.82421875 14.625 23.6875 C13.62726563 24.31011719 12.62953125 24.93273437 11.6015625 25.57421875 C9 27 9 27 7 27 C6.20558928 25.12616097 5.41460026 23.25087114 4.625 21.375 C4.18414062 20.33085937 3.74328125 19.28671875 3.2890625 18.2109375 C2.65097656 16.62152344 2.65097656 16.62152344 2 15 C1.61585937 14.06414062 1.23171875 13.12828125 0.8359375 12.1640625 C0 9 0 9 0 0 Z " fill="#844B14" transform="translate(96,150)"/>
<path d="M0 0 C1.875 1.25 1.875 1.25 3 3 C3 5.96785867 1.85449108 7.18188615 0 9.5 C-6.16083052 14.63402543 -12.02355107 16.6996885 -20 16 C-20.66 15.67 -21.32 15.34 -22 15 C-22 11.81070565 -21.68850599 9.71597755 -19.43359375 7.37109375 C-14.05995357 3.17523772 -7.09594817 -1.21644826 0 0 Z " fill="#F6B686" transform="translate(142,87)"/>
<path d="M0 0 C0.66 0 1.32 0 2 0 C2.08834684 3.31232698 2.14083584 6.62434435 2.1875 9.9375 C2.21263672 10.86369141 2.23777344 11.78988281 2.26367188 12.74414062 C2.37439703 23.26303032 -0.4157979 30.96855867 -7.5625 38.8125 C-11.65822627 42.48815178 -15.83576637 42.51866455 -21.140625 42.4765625 C-27.19878553 41.46686908 -30.56092462 36.95086892 -34.04296875 32.23046875 C-36.17852261 28.70531297 -37.57909596 25.32911544 -38.875 21.4375 C-39.1121875 20.79103516 -39.349375 20.14457031 -39.59375 19.47851562 C-40.68890792 16.23592455 -41.10487501 14.35855915 -40.1328125 11.03515625 C-39.57207031 10.02775391 -39.57207031 10.02775391 -39 9 C-38.67 9 -38.34 9 -38 9 C-37.75765625 9.99 -37.5153125 10.98 -37.265625 12 C-35.47467992 19.12319999 -33.64300385 25.56402654 -30 32 C-29.67257813 32.70382813 -29.34515625 33.40765625 -29.0078125 34.1328125 C-27.72254104 36.51405188 -26.46591848 36.99822062 -24 38 C-23.34 38.33 -22.68 38.66 -22 39 C-16.98646089 39.37838031 -13.99517885 39.13135639 -10 36 C-2.49391905 28.49391905 -0.98884943 17.80159859 -0.4375 7.6875 C-0.37272461 6.57665039 -0.37272461 6.57665039 -0.30664062 5.44335938 C-0.20129568 3.62908536 -0.10021684 1.8145645 0 0 Z " fill="#0F0C0A" transform="translate(221,143)"/>
<path d="M0 0 C0 0.66 0 1.32 0 2 C-9.64206038 4.94268802 -19.29685113 7.24373581 -29.18579102 9.18261719 C-31.43346877 9.624208 -33.67866264 10.0770781 -35.92382812 10.53125 C-49.75450714 13.29888121 -63.27875043 15.34743353 -77.4375 15.125 C-79.12456055 15.11146484 -79.12456055 15.11146484 -80.84570312 15.09765625 C-83.56404648 15.07452141 -86.28189338 15.04194111 -89 15 C-86.23691384 12.66239046 -84.56028757 11.63270307 -80.9296875 11.62890625 C-79.72989258 11.60727417 -79.72989258 11.60727417 -78.50585938 11.58520508 C-77.63767578 11.5777124 -76.76949219 11.57021973 -75.875 11.5625 C-50.5631185 10.80853847 -24.76839811 -0.55040885 0 0 Z " fill="#1F140A" transform="translate(193,105)"/>
<path d="M0 0 C3.0625 0.375 3.0625 0.375 4.875 2.1875 C9.15747358 10.07626712 7.48474669 20.27709723 5.17578125 28.59375 C3.4365717 32.93872263 0.94135342 36.68355069 -2.9375 39.375 C-5.5546875 39.69140625 -5.5546875 39.69140625 -7.9375 39.375 C-12.75979277 34.38048249 -12.21030665 28.57495496 -12.15625 22.02734375 C-11.71280707 14.62343055 -8.90118761 1.13632182 0 0 Z M-1.9375 2.375 C-8.01292199 8.45042199 -10.04391786 16.39830535 -10.1875 24.75 C-10.16057741 29.72394826 -9.26546894 33.01005824 -6.9375 37.375 C-4.55852997 37.42010361 -4.55852997 37.42010361 -1.9375 36.375 C4.66811572 27.31586987 4.9475151 16.22944994 4.0625 5.375 C3.4025 4.385 2.7425 3.395 2.0625 2.375 C0.7425 2.375 -0.5775 2.375 -1.9375 2.375 Z " fill="#3D3D37" transform="translate(263.9375,149.625)"/>
<path d="M0 0 C1.32 0.66 2.64 1.32 4 2 C4.69847565 10.42051203 3.0564067 18.13920819 0 26 C-1.63671875 27.91015625 -1.63671875 27.91015625 -3 29 C-3.99 28.67 -4.98 28.34 -6 28 C-6.39634764 17.8123976 -6.66774769 8.25530666 0 0 Z " fill="#F0DD8C" transform="translate(289,157)"/>
<path d="M0 0 C5.5021816 -0.23136637 10.13853778 0.5649654 15.4375 2 C16.16904297 2.19078125 16.90058594 2.3815625 17.65429688 2.578125 C19.43819666 3.04450403 21.21939845 3.52118278 23 4 C20.74542314 7.91789581 18.88498216 10.5605926 15 13 C11.24239121 13.62626813 9.62228267 13.3852226 6.375 11.375 C3.76341108 8.76341108 1.8393187 6.20177699 0 3 C0 2.01 0 1.02 0 0 Z " fill="#C5CAD2" transform="translate(135,213)"/>
<path d="M0 0 C2.375 0.3125 2.375 0.3125 5 1 C8.4712598 6.2068897 8.38892512 12.11634798 7.56640625 18.21484375 C6.29059524 24.04609293 5.13254473 28.45610007 0 32 C-2.6875 32.9375 -2.6875 32.9375 -5 33 C-7.77740541 30.22259459 -7.29964728 28.50652015 -7.3125 24.625 C-7.18715933 16.49456883 -6.43372731 8.61582343 -1.8125 1.75 C-1.214375 1.1725 -0.61625 0.595 0 0 Z M1 2 C-5.58564721 10.78086295 -5.26961722 19.33514097 -5 30 C-3.68 30 -2.36 30 -1 30 C4.33191681 24.65541831 5.1875 15.46181031 5.1875 8.25 C5.14070327 6.8327277 5.08455549 5.41552148 5 4 C3.68 3.34 2.36 2.68 1 2 Z " fill="#4B4B48" transform="translate(288,155)"/>
<path d="M0 0 C0.66 0 1.32 0 2 0 C2.483059 1.39449109 2.96125517 2.79066707 3.4375 4.1875 C3.83775391 5.35345703 3.83775391 5.35345703 4.24609375 6.54296875 C9.88878423 24.93287711 6.65111984 46.53945263 -1.95507812 63.29345703 C-4.44005731 67.77194709 -4.44005731 67.77194709 -7.25390625 68.91796875 C-7.83011719 68.94503906 -8.40632813 68.97210938 -9 69 C-7.62416187 65.37040799 -5.96951371 62.03687252 -4.125 58.625 C5.09387464 40.00648847 5.1943439 19.8498142 0 0 Z " fill="#171819" transform="translate(274,128)"/>
<path d="M0 0 C-0.33 0.99 -0.66 1.98 -1 3 C-18.74128569 5.76235773 -36.00569337 8.29660945 -54 8 C-54 7.67 -54 7.34 -54 7 C-59.94 6.67 -65.88 6.34 -72 6 C-72 5.67 -72 5.34 -72 5 C-71.13761719 4.9906543 -70.27523437 4.98130859 -69.38671875 4.97167969 C-49.03950455 4.69773356 -29.21539944 3.3218825 -9.07910156 0.35131836 C-6.02318176 0.00264499 -3.07275002 -0.0620204 0 0 Z " fill="#241C0F" transform="translate(173,142)"/>
<path d="M0 0 C1.4540625 0.0309375 1.4540625 0.0309375 2.9375 0.0625 C4.71235714 3.88689455 5.20876874 6.91910734 5.1875 11.125 C5.19265625 12.14722656 5.1978125 13.16945312 5.203125 14.22265625 C4.94115182 17.0234578 4.37824562 18.67840904 2.9375 21.0625 C1.6175 21.0625 0.2975 21.0625 -1.0625 21.0625 C-4.15690988 14.35794527 -4.67477636 8.4215909 -4.0625 1.0625 C-3.0625 0.0625 -3.0625 0.0625 0 0 Z " fill="#EFEFEF" transform="translate(201.0625,138.9375)"/>
<path d="M0 0 C3.79751908 -0.4520856 5.66377714 -0.19613 9 1.75 C14.34587489 6.81302437 17.96342491 13.74656357 18.375 21.1171875 C18.43392379 24.75594531 18.26775765 28.37039628 18 32 C16.35 32.66 14.7 33.32 13 34 C13.15597656 33.30261719 13.31195313 32.60523438 13.47265625 31.88671875 C15.07740405 23.10221043 14.98660018 15.62980649 9.8671875 8.09765625 C7.40736977 5.33422085 4.79855876 3.55504684 1.5390625 1.83984375 C1.03117187 1.56269531 0.52328125 1.28554687 0 1 C0 0.67 0 0.34 0 0 Z " fill="#120C06" transform="translate(54,169)"/>
<path d="M0 0 C0.33 0 0.66 0 1 0 C1.24234375 0.99 1.4846875 1.98 1.734375 3 C3.52532008 10.12319999 5.35699615 16.56402654 9 23 C9.32742187 23.70382813 9.65484375 24.40765625 9.9921875 25.1328125 C11.27745896 27.51405188 12.53408152 27.99822062 15 29 C15.66 29.33 16.32 29.66 17 30 C17 30.99 17 31.98 17 33 C10.34894028 30.70613365 6.11201857 26.33053434 3.02197266 19.99462891 C2.067644 17.76720103 1.20202203 15.52765614 0.375 13.25 C0.10308838 12.5170874 -0.16882324 11.7841748 -0.44897461 11.02905273 C-1.58814372 7.62243538 -2.1366316 5.48385134 -1.1484375 1.984375 C-0.76945313 1.32953125 -0.39046875 0.6746875 0 0 Z " fill="#13100E" transform="translate(182,152)"/>
<path d="M0 0 C-1.55808656 11.70615034 -1.55808656 11.70615034 -6 16 C-6.99 15.67 -7.98 15.34 -9 15 C-9 10.38 -9 5.76 -9 1 C-8.67 1.66 -8.34 2.32 -8 3 C-7.05125 2.505 -6.1025 2.01 -5.125 1.5 C-2 0 -2 0 0 0 Z " fill="#D8C67D" transform="translate(292,170)"/>
<path d="M0 0 C3 0.25 3 0.25 5 2.25 C5.125 4.875 5.125 4.875 5 7.25 C3.5 5.875 3.5 5.875 2 4.25 C2 3.59 2 2.93 2 2.25 C-1.09284916 3.17889262 -2.66490207 3.77189311 -4.546875 6.45703125 C-4.94390625 7.31683594 -5.3409375 8.17664063 -5.75 9.0625 C-6.15734375 9.91457031 -6.5646875 10.76664063 -6.984375 11.64453125 C-8.89483006 16.54558327 -9.22061207 21.33649882 -9.5625 26.5625 C-9.64628906 27.81675781 -9.73007813 29.07101563 -9.81640625 30.36328125 C-9.87699219 31.31589844 -9.93757812 32.26851562 -10 33.25 C-10.66 32.92 -11.32 32.59 -12 32.25 C-12.43814745 20.98798764 -12.08541255 11.3924678 -5 2.25 C-3 0.25 -3 0.25 0 0 Z " fill="#1A1A17" transform="translate(264,149.75)"/>
<path d="M0 0 C0.66 0.99 1.32 1.98 2 3 C-11.30438788 5.42291291 -24.51913648 5.20801332 -38 5 C-35.03281602 2.43969309 -33.16989009 1.6185607 -29.26171875 1.5234375 C-28.35873047 1.4925 -27.45574219 1.4615625 -26.52539062 1.4296875 C-25.12063477 1.40261719 -25.12063477 1.40261719 -23.6875 1.375 C-15.89194636 1.15770234 -7.69303222 -0.7156309 0 0 Z " fill="#4D391F" transform="translate(142,115)"/>
<path d="M0 0 C-0.71542969 0.42796875 -1.43085938 0.8559375 -2.16796875 1.296875 C-11.03624989 6.6300758 -19.12725337 11.9990232 -26.375 19.4375 C-28 21 -28 21 -30 21 C-25.65460654 11.02585854 -14.84264231 4.24924287 -5.359375 -0.25390625 C-3 -1 -3 -1 0 0 Z " fill="#110E0D" transform="translate(226,183)"/>
<path d="M0 0 C4.875 0.875 4.875 0.875 6 2 C6.07313567 4.53049402 6.09247527 7.03304837 6.0625 9.5625 C6.05798828 10.27341797 6.05347656 10.98433594 6.04882812 11.71679688 C6.03700864 13.47790013 6.01907263 15.23896036 6 17 C5.67 17 5.34 17 5 17 C4.67 12.71 4.34 8.42 4 4 C2.68 4 1.36 4 0 4 C-3.26720462 12.31652085 -5.2162444 20.08993636 -6 29 C-6.33 29 -6.66 29 -7 29 C-7.45352449 19.52637735 -7.26360535 9.84878509 -1.8125 1.75 C-1.214375 1.1725 -0.61625 0.595 0 0 Z " fill="#181712" transform="translate(288,155)"/>
<path d="M0 0 C7.86597883 2.19515688 11.23995769 5.89262063 15.1796875 12.78125 C16.12369565 15.33456727 15.92606971 16.48474893 15 19 C14.34 19 13.68 19 13 19 C12.5875 17.783125 12.175 16.56625 11.75 15.3125 C10.10361368 10.99835806 8.44003204 7.30415506 4.1875 5.03125 C2.48493526 4.28981052 0.74421754 3.63731026 -1 3 C-0.67 2.01 -0.34 1.02 0 0 Z " fill="#1F160B" transform="translate(123,172)"/>
<path d="M0 0 C0.33 0.99 0.66 1.98 1 3 C-7.04030671 4.77967263 -14.71017896 6.43630637 -23 6 C-20.28922468 2.23444829 -16.34698178 2.0144339 -12.0625 1.3125 C-11.34642578 1.18294922 -10.63035156 1.05339844 -9.89257812 0.91992188 C-6.52628843 0.33027521 -3.42795319 0 0 0 Z " fill="#26190C" transform="translate(164,111)"/>
<path d="M0 0 C0.66 0 1.32 0 2 0 C6.34055094 11.05612032 6.20923986 21.29827889 5 33 C4.67 33 4.34 33 4 33 C3.96261719 31.87464844 3.92523438 30.74929687 3.88671875 29.58984375 C3.47675352 19.4373714 2.32171537 9.90014478 0 0 Z " fill="#313234" transform="translate(274,128)"/>
<path d="M0 0 C0 0.66 0 1.32 0 2 C-3.96 2.99 -7.92 3.98 -12 5 C-12 4.34 -12 3.68 -12 3 C-12.66 2.67 -13.32 2.34 -14 2 C-12.42085985 1.46658816 -10.83645613 0.94874237 -9.25 0.4375 C-8.36828125 0.14746094 -7.4865625 -0.14257812 -6.578125 -0.44140625 C-3.92165684 -1.01697435 -2.52968894 -0.89248371 0 0 Z " fill="#2F1F0F" transform="translate(205,102)"/>
<path d="M0 0 C0.33 0 0.66 0 1 0 C1 4.95 1 9.9 1 15 C-0.65 15.66 -2.3 16.32 -4 17 C-3.7178711 14.72796198 -3.42397144 12.45738316 -3.125 10.1875 C-2.96257812 8.92292969 -2.80015625 7.65835938 -2.6328125 6.35546875 C-2 3 -2 3 0 0 Z " fill="#362916" transform="translate(71,186)"/>
<path d="M0 0 C11.55 0 23.1 0 35 0 C35 0.33 35 0.66 35 1 C23.45 1 11.9 1 0 1 C0 0.67 0 0.34 0 0 Z " fill="#000000" transform="translate(64,221)"/>
<path d="M0 0 C2.90296927 -0.34559158 5.12537491 -0.51874316 7.69921875 1.0078125 C10.40347821 3.19479231 11.88889766 4.66669298 13 8 C12.01 8.33 11.02 8.66 10 9 C9.46375 8.236875 8.9275 7.47375 8.375 6.6875 C5.79794186 3.77135526 3.54185596 2.5294378 0 1 C0 0.67 0 0.34 0 0 Z " fill="#1E140A" transform="translate(54,169)"/>
<path d="M0 0 C0.66 0.33 1.32 0.66 2 1 C1 4 1 4 -1.75 5.6875 C-4.85020705 6.93950669 -6.71671912 7.28970125 -10 7 C-7.97838446 3.96757669 -7.12981578 3.29189454 -4 1.75 C-3.29875 1.39421875 -2.5975 1.0384375 -1.875 0.671875 C-1.25625 0.45015625 -0.6375 0.2284375 0 0 Z " fill="#0F0B05" transform="translate(167,199)"/>
<path d="M0 0 C0.33 0 0.66 0 1 0 C1 5.61 1 11.22 1 17 C0.67 17 0.34 17 0 17 C-0.09796875 16.37351563 -0.1959375 15.74703125 -0.296875 15.1015625 C-0.44640625 14.28429687 -0.5959375 13.46703125 -0.75 12.625 C-0.88921875 11.81289062 -1.0284375 11.00078125 -1.171875 10.1640625 C-1.81749261 7.82290908 -1.81749261 7.82290908 -4.078125 6.7109375 C-4.71234375 6.47632813 -5.3465625 6.24171875 -6 6 C-6 5.34 -6 4.68 -6 4 C-4.68 4.33 -3.36 4.66 -2 5 C-1.34 3.35 -0.68 1.7 0 0 Z " fill="#D9DDE5" transform="translate(295,149)"/>
<path d="M0 0 C8.25 0 16.5 0 25 0 C25 0.33 25 0.66 25 1 C23.56342755 1.33730842 22.12569907 1.66969591 20.6875 2 C19.48673828 2.2784375 19.48673828 2.2784375 18.26171875 2.5625 C16 3 16 3 13 3 C13.33 2.34 13.66 1.68 14 1 C9.38 1 4.76 1 0 1 C0 0.67 0 0.34 0 0 Z " fill="#030100" transform="translate(101,148)"/>
<path d="M0 0 C0.33 0 0.66 0 1 0 C1.08710289 3.10398978 1.14042309 6.20766548 1.1875 9.3125 C1.21263672 10.19357422 1.23777344 11.07464844 1.26367188 11.98242188 C1.27333984 12.82998047 1.28300781 13.67753906 1.29296875 14.55078125 C1.3086792 15.33106689 1.32438965 16.11135254 1.34057617 16.9152832 C0.91847304 19.49903853 -0.01489942 20.36292167 -2 22 C-1.855625 20.783125 -1.71125 19.56625 -1.5625 18.3125 C-0.88136774 12.2212315 -0.44401931 6.11235086 0 0 Z " fill="#0F0F0F" transform="translate(279,148)"/>
<path d="M0 0 C1.8075209 2.71128135 2.89445991 5.0469136 4.0625 8.0625 C5.42417865 11.57884439 5.42417865 11.57884439 7 15 C6.01 15 5.02 15 4 15 C3.67 15.99 3.34 16.98 3 18 C2.87882813 17.27554688 2.75765625 16.55109375 2.6328125 15.8046875 C1.75060421 10.71502427 0.83557653 5.85116654 -1 1 C-0.67 0.67 -0.34 0.34 0 0 Z " fill="#64380F" transform="translate(181,161)"/>
<path d="M0 0 C0.66 0 1.32 0 2 0 C1.48474397 5.28137429 -0.25477117 8.57221156 -3 13 C-3.66 12.67 -4.32 12.34 -5 12 C-4.731875 11.505 -4.46375 11.01 -4.1875 10.5 C-2.56124507 7.0763054 -1.30484829 3.55867715 0 0 Z " fill="#292A2C" transform="translate(240,196)"/>
<path d="M0 0 C0 3 0 3 -2.1875 5.48046875 C-3.115625 6.37378906 -4.04375 7.26710937 -5 8.1875 C-5.928125 9.08855469 -6.85625 9.98960937 -7.8125 10.91796875 C-8.534375 11.60503906 -9.25625 12.29210937 -10 13 C-10.66 12.67 -11.32 12.34 -12 12 C-8.27653164 7.57905197 -4.70478962 3.42166518 0 0 Z " fill="#D8DDE4" transform="translate(210,192)"/>
<path d="M0 0 C2 3 2 3 1.828125 5.15625 C1.63734375 5.9296875 1.4465625 6.703125 1.25 7.5 C0.97929687 8.66015625 0.97929687 8.66015625 0.703125 9.84375 C0 12 0 12 -2 15 C-2.66 14.67 -3.32 14.34 -4 14 C-2.68 9.38 -1.36 4.76 0 0 Z " fill="#211F16" transform="translate(292,169)"/>
<path d="M0 0 C0.33 0 0.66 0 1 0 C1.66 3.96 2.32 7.92 3 12 C2.01 12 1.02 12 0 12 C-0.39063507 10.56666979 -0.76198474 9.12807321 -1.125 7.6875 C-1.33382812 6.88699219 -1.54265625 6.08648437 -1.7578125 5.26171875 C-2 3 -2 3 0 0 Z " fill="#1C1917" transform="translate(182,152)"/>
<path d="M0 0 C-0.99 1.32 -1.98 2.64 -3 4 C-4.65 3.67 -6.3 3.34 -8 3 C-8.33 2.01 -8.66 1.02 -9 0 C-3.375 -1.125 -3.375 -1.125 0 0 Z " fill="#CDBB77" transform="translate(264,183)"/>
<path d="M0 0 C1.09898702 3.29696105 0.87124444 4.40494903 0.0625 7.6875 C-0.22947266 8.89986328 -0.22947266 8.89986328 -0.52734375 10.13671875 C-0.68332031 10.75160156 -0.83929688 11.36648437 -1 12 C-1.99 11.34 -2.98 10.68 -4 10 C-3.71872579 8.51882199 -3.42466268 7.04006751 -3.125 5.5625 C-2.96257812 4.73878906 -2.80015625 3.91507813 -2.6328125 3.06640625 C-2.42398437 2.38449219 -2.21515625 1.70257813 -2 1 C-1.34 0.67 -0.68 0.34 0 0 Z " fill="#2E2F31" transform="translate(278,169)"/>
<path d="M0 0 C4.875 0.875 4.875 0.875 6 2 C6.07313567 4.53049402 6.09247527 7.03304837 6.0625 9.5625 C6.05798828 10.27341797 6.05347656 10.98433594 6.04882812 11.71679688 C6.03700864 13.47790013 6.01907263 15.23896036 6 17 C5.67 17 5.34 17 5 17 C4.67 12.71 4.34 8.42 4 4 C1.525 3.01 1.525 3.01 -1 2 C-0.67 1.34 -0.34 0.68 0 0 Z " fill="#0F0E0D" transform="translate(288,155)"/>
<path d="M0 0 C0 0.66 0 1.32 0 2 C-4.26616316 3.13764351 -7.56486311 4 -12 4 C-12 3.34 -12 2.68 -12 2 C-7.8803623 0.70756464 -4.33168317 -0.26252625 0 0 Z " fill="#110903" transform="translate(176,109)"/>
<path d="M0 0 C0.99 0.33 1.98 0.66 3 1 C2.67 5.95 2.34 10.9 2 16 C1.67 16 1.34 16 1 16 C0.855625 14.9275 0.71125 13.855 0.5625 12.75 C0.12356441 9.24122819 0.12356441 9.24122819 -0.625 6.875 C-1.12208769 4.38956155 -0.60855003 2.4342001 0 0 Z " fill="#93969C" transform="translate(279,167)"/>
<path d="M0 0 C0.33 0 0.66 0 1 0 C1 1.98 1 3.96 1 6 C1.66 6 2.32 6 3 6 C2.67 7.98 2.34 9.96 2 12 C0.68 12.33 -0.64 12.66 -2 13 C-1.34 8.71 -0.68 4.42 0 0 Z " fill="#211B0F" transform="translate(181,174)"/>
<path d="M0 0 C0.99 0.33 1.98 0.66 3 1 C3.33 3.31 3.66 5.62 4 8 C3.34 8 2.68 8 2 8 C1.67 8.66 1.34 9.32 1 10 C0.67 6.7 0.34 3.4 0 0 Z " fill="#150F0A" transform="translate(219,135)"/>
<path d="M0 0 C0 0.99 0 1.98 0 3 C-1.59915881 3.69906942 -3.20455045 4.38389468 -4.8125 5.0625 C-5.70582031 5.44535156 -6.59914062 5.82820313 -7.51953125 6.22265625 C-10 7 -10 7 -13 6 C-11.21118264 4.99491199 -9.41885304 3.99607264 -7.625 3 C-6.62726563 2.443125 -5.62953125 1.88625 -4.6015625 1.3125 C-2 0 -2 0 0 0 Z " fill="#D6631D" transform="translate(137,85)"/>
<path d="M0 0 C0.94875 0.144375 1.8975 0.28875 2.875 0.4375 C3.535 1.4275 4.195 2.4175 4.875 3.4375 C-1.065 3.9325 -1.065 3.9325 -7.125 4.4375 C-3.125 0.4375 -3.125 0.4375 0 0 Z " fill="#48381F" transform="translate(139.125,114.5625)"/>
<path d="M0 0 C2.84875378 0.20153707 5.25099253 1.14375177 8 2 C7.67 2.66 7.34 3.32 7 4 C3.7 3.67 0.4 3.34 -3 3 C-2.01 2.01 -1.02 1.02 0 0 Z " fill="#202020" transform="translate(151,213)"/>
<path d="M0 0 C0.268125 0.598125 0.53625 1.19625 0.8125 1.8125 C1.99846146 3.99716585 3.1807485 5.33235279 5 7 C5.66 7.66 6.32 8.32 7 9 C4.6875 9.25 4.6875 9.25 2 9 C0.125 7.3125 0.125 7.3125 -1 5 C-0.6875 2.25 -0.6875 2.25 0 0 Z " fill="#282722" transform="translate(254,180)"/>
<path d="M0 0 C0.8125 1.625 0.8125 1.625 1 4 C-0.46818136 6.24609835 -2.15852858 8.02378677 -4 10 C-4.99 9.67 -5.98 9.34 -7 9 C-6.401875 8.443125 -5.80375 7.88625 -5.1875 7.3125 C-3.0136554 5.01443571 -1.53101917 2.75583451 0 0 Z " fill="#13120E" transform="translate(266,178)"/>
<path d="M0 0 C0 3 0 3 -1.1875 4.6875 C-3.55741722 6.40364695 -5.14025666 6.23187108 -8 6 C-5.51047079 3.33264727 -3.36591866 1.44253657 0 0 Z " fill="#E0D083" transform="translate(126,166)"/>
<path d="M0 0 C6.93 0 13.86 0 21 0 C21 0.33 21 0.66 21 1 C14.07 1 7.14 1 0 1 C0 0.67 0 0.34 0 0 Z " fill="#000000" transform="translate(2,216)"/>
<path d="M0 0 C0 0.33 0 0.66 0 1 C-6.69675136 2.03026944 -13.2314676 2.10152799 -20 2 C-20 1.67 -20 1.34 -20 1 C-13.29980211 0.29867087 -6.73742646 -0.11044961 0 0 Z " fill="#000000" transform="translate(43,214)"/>
<path d="M0 0 C2.9375 0.8125 2.9375 0.8125 6 2 C6.33 2.99 6.66 3.98 7 5 C3.62537285 4.45276317 1.91765 3.9451 -1 2 C-0.67 1.34 -0.34 0.68 0 0 Z " fill="#2E1F10" transform="translate(123,172)"/>
<path d="M0 0 C1.22589844 0.01353516 1.22589844 0.01353516 2.4765625 0.02734375 C3.41628906 0.04474609 3.41628906 0.04474609 4.375 0.0625 C2.7405205 2.02696905 1.91070606 2.98567791 -0.66796875 3.35546875 C-2.65364583 3.2578125 -4.63932292 3.16015625 -6.625 3.0625 C-6.625 2.4025 -6.625 1.7425 -6.625 1.0625 C-4.21954362 -0.14022819 -2.67503047 -0.03821472 0 0 Z " fill="#1C1207" transform="translate(157.625,148.9375)"/>
<path d="M0 0 C2.875 -0.125 2.875 -0.125 6 0 C8 2 8 2 8.125 4.625 C8.08375 5.40875 8.0425 6.1925 8 7 C6.5 5.625 6.5 5.625 5 4 C5 3.34 5 2.68 5 2 C3.35 1.67 1.7 1.34 0 1 C0 0.67 0 0.34 0 0 Z " fill="#242422" transform="translate(261,150)"/>
<path d="M0 0 C0.33 0 0.66 0 1 0 C1 2.97 1 5.94 1 9 C-1.97 8.505 -1.97 8.505 -5 8 C-4.01 7.67 -3.02 7.34 -2 7 C-0.77030122 3.48809191 -0.77030122 3.48809191 0 0 Z " fill="#2F2E29" transform="translate(235,121)"/>
<path d="M0 0 C-1.39332574 3.36720387 -2.9789286 4.9859524 -6 7 C-6 4 -6 4 -4.125 1.8125 C-2 0 -2 0 0 0 Z " fill="#0C0C0C" transform="translate(236,208)"/>
<path d="M0 0 C0.99 0.33 1.98 0.66 3 1 C1.6875 3.5 1.6875 3.5 0 6 C-0.99 6 -1.98 6 -3 6 C-1.125 1.125 -1.125 1.125 0 0 Z " fill="#1F2021" transform="translate(268,191)"/>
<path d="M0 0 C0.33 0.66 0.66 1.32 1 2 C-1.3125 4.5 -1.3125 4.5 -4 7 C-4.99 7 -5.98 7 -7 7 C-4.69 4.69 -2.38 2.38 0 0 Z " fill="#0C0702" transform="translate(177,192)"/>
<path d="M0 0 C5.28 0.33 10.56 0.66 16 1 C16 1.33 16 1.66 16 2 C11.05 2 6.1 2 1 2 C0.67 1.34 0.34 0.68 0 0 Z " fill="#000000" transform="translate(190,67)"/>
<path d="M0 0 C0.12375 0.61875 0.2475 1.2375 0.375 1.875 C0.87197356 4.19120832 0.87197356 4.19120832 3 6 C0.69 6.33 -1.62 6.66 -4 7 C-2.68 4.69 -1.36 2.38 0 0 Z " fill="#C0AF6F" transform="translate(137,204)"/>
<path d="M0 0 C2 3 2 3 2 6 C1.34 6 0.68 6 0 6 C-0.33 6.66 -0.66 7.32 -1 8 C-1.33 6.02 -1.66 4.04 -2 2 C-1.34 2 -0.68 2 0 2 C0 1.34 0 0.68 0 0 Z " fill="#201A0E" transform="translate(96,159)"/>
<path d="M0 0 C4.62 0 9.24 0 14 0 C14 0.33 14 0.66 14 1 C9.38 1 4.76 1 0 1 C0 0.67 0 0.34 0 0 Z " fill="#000000" transform="translate(176,68)"/>
<path d="M0 0 C3.96 0 7.92 0 12 0 C12 0.33 12 0.66 12 1 C8.04 1 4.08 1 0 1 C0 0.67 0 0.34 0 0 Z " fill="#000000" transform="translate(227,221)"/>
<path d="M0 0 C1.32 0 2.64 0 4 0 C4 2.64 4 5.28 4 8 C3.67 8 3.34 8 3 8 C3 5.69 3 3.38 3 1 C2.01 0.67 1.02 0.34 0 0 Z " fill="#000000" transform="translate(183,217)"/>
<path d="M0 0 C0 0.33 0 0.66 0 1 C-3.3 1.33 -6.6 1.66 -10 2 C-6.00889681 0.0044484 -4.30013434 -0.19546065 0 0 Z " fill="#000000" transform="translate(170,70)"/>
<path d="M0 0 C3.3 0 6.6 0 10 0 C10 0.33 10 0.66 10 1 C6.7 1 3.4 1 0 1 C0 0.67 0 0.34 0 0 Z " fill="#000000" transform="translate(194,231)"/>
<path d="M0 0 C1.98 0.99 1.98 0.99 4 2 C4 2.99 4 3.98 4 5 C2.68 3.35 1.36 1.7 0 0 Z " fill="#000000" transform="translate(273,100)"/>
<path d="M0 0 C0.66 0.33 1.32 0.66 2 1 C1.01 1.99 0.02 2.98 -1 4 C-1.66 3.67 -2.32 3.34 -3 3 C-2.01 2.01 -1.02 1.02 0 0 Z " fill="#000000" transform="translate(18,186)"/>
<path d="M0 0 C2.31 0 4.62 0 7 0 C7 0.33 7 0.66 7 1 C4.69 1 2.38 1 0 1 C0 0.67 0 0.34 0 0 Z " fill="#000000" transform="translate(99,220)"/>
<path d="M0 0 C2.31 0 4.62 0 7 0 C7 0.33 7 0.66 7 1 C4.69 1 2.38 1 0 1 C0 0.67 0 0.34 0 0 Z " fill="#000000" transform="translate(108,219)"/>
<path d="M0 0 C2.31 0 4.62 0 7 0 C7 0.33 7 0.66 7 1 C4.69 1 2.38 1 0 1 C0 0.67 0 0.34 0 0 Z " fill="#000000" transform="translate(176,218)"/>
<path d="M0 0 C2.31 0 4.62 0 7 0 C7 0.33 7 0.66 7 1 C4.69 1 2.38 1 0 1 C0 0.67 0 0.34 0 0 Z " fill="#000000" transform="translate(115,218)"/>
<path d="M0 0 C1.98 0 3.96 0 6 0 C6 0.33 6 0.66 6 1 C4.02 1 2.04 1 0 1 C0 0.67 0 0.34 0 0 Z " fill="#000000" transform="translate(122,217)"/>
<path d="M0 0 C1.98 0 3.96 0 6 0 C6 0.33 6 0.66 6 1 C4.02 1 2.04 1 0 1 C0 0.67 0 0.34 0 0 Z " fill="#000000" transform="translate(256,216)"/>
<path d="M0 0 C1.98 0 3.96 0 6 0 C6 0.33 6 0.66 6 1 C4.02 1 2.04 1 0 1 C0 0.67 0 0.34 0 0 Z " fill="#000000" transform="translate(212,70)"/>
<path d="M0 0 C1.98 0 3.96 0 6 0 C6 0.33 6 0.66 6 1 C4.02 1 2.04 1 0 1 C0 0.67 0 0.34 0 0 Z " fill="#000000" transform="translate(170,69)"/>
<path d="M0 0 C1.65 0 3.3 0 5 0 C5 0.33 5 0.66 5 1 C3.35 1 1.7 1 0 1 C0 0.67 0 0.34 0 0 Z " fill="#000000" transform="translate(144,231)"/>
<path d="M0 0 C0.66 0.33 1.32 0.66 2 1 C0.68 1.33 -0.64 1.66 -2 2 C-1.34 1.34 -0.68 0.68 0 0 Z " fill="#000000" transform="translate(213,227)"/>
<path d="M0 0 C1.65 0 3.3 0 5 0 C5 0.33 5 0.66 5 1 C3.35 1 1.7 1 0 1 C0 0.67 0 0.34 0 0 Z " fill="#000000" transform="translate(43,213)"/>
<path d="M0 0 C0.66 0.33 1.32 0.66 2 1 C1.01 1.66 0.02 2.32 -1 3 C-0.67 2.01 -0.34 1.02 0 0 Z " fill="#000000" transform="translate(107,98)"/>
<path d="M0 0 C1.65 0 3.3 0 5 0 C5 0.33 5 0.66 5 1 C3.35 1 1.7 1 0 1 C0 0.67 0 0.34 0 0 Z " fill="#000000" transform="translate(207,69)"/>
<path d="M0 0 C0.99 0.33 1.98 0.66 3 1 C2.01 1 1.02 1 0 1 C0 0.67 0 0.34 0 0 Z " fill="#000000" transform="translate(138,227)"/>
<path d="M0 0 C4 1 4 1 4 1 Z " fill="#000000" transform="translate(60,220)"/>
<path d="M0 0 C0.66 0.33 1.32 0.66 2 1 C1.01 1 0.02 1 -1 1 C-0.67 0.67 -0.34 0.34 0 0 Z " fill="#000000" transform="translate(114,92)"/>
<path d="M0 0 C4 1 4 1 4 1 Z " fill="#000000" transform="translate(149,74)"/>
<path d="M0 0 C4 1 4 1 4 1 Z " fill="#000000" transform="translate(218,71)"/>
<path d="M0 0 C3 1 3 1 3 1 Z " fill="#000000" transform="translate(204,230)"/>
<path d="M0 0 C3 1 3 1 3 1 Z " fill="#000000" transform="translate(208,229)"/>
<path d="M0 0 C3 1 3 1 3 1 Z " fill="#000000" transform="translate(239,220)"/>
<path d="M0 0 C3 1 3 1 3 1 Z " fill="#000000" transform="translate(244,218)"/>
<path d="M0 0 C3 1 3 1 3 1 Z " fill="#000000" transform="translate(263,215)"/>
<path d="M0 0 C3 1 3 1 3 1 Z " fill="#000000" transform="translate(266,214)"/>
<path d="M0 0 C0.99 0.495 0.99 0.495 2 1 C1.01 1.495 1.01 1.495 0 2 C0 1.34 0 0.68 0 0 Z " fill="#000000" transform="translate(7,197)"/>
<path d="M0 0 C3 1 3 1 3 1 Z " fill="#000000" transform="translate(68,154)"/>
<path d="M0 0 C3 1 3 1 3 1 Z " fill="#000000" transform="translate(75,151)"/>
<path d="" fill="#000000" transform="translate(0,0)"/>
<path d="M0 0 C3 1 3 1 3 1 Z " fill="#000000" transform="translate(138,78)"/>
<path d="M0 0 C3 1 3 1 3 1 Z " fill="#000000" transform="translate(237,77)"/>
<path d="M0 0 C3 1 3 1 3 1 Z " fill="#000000" transform="translate(232,75)"/>
<path d="M0 0 C3 1 3 1 3 1 Z " fill="#000000" transform="translate(146,75)"/>
<path d="M0 0 C3 1 3 1 3 1 Z " fill="#000000" transform="translate(229,74)"/>
<path d="M0 0 C3 1 3 1 3 1 Z " fill="#000000" transform="translate(226,73)"/>
<path d="M0 0 C3 1 3 1 3 1 Z " fill="#000000" transform="translate(153,73)"/>
<path d="M0 0 C3 1 3 1 3 1 Z " fill="#000000" transform="translate(222,72)"/>
<path d="M0 0 C3 1 3 1 3 1 Z " fill="#000000" transform="translate(157,72)"/>
<path d="M0 0 C2 1 2 1 2 1 Z " fill="#000000" transform="translate(192,230)"/>
<path d="M0 0 C2 1 2 1 2 1 Z " fill="#000000" transform="translate(149,230)"/>
<path d="M0 0 C2 1 2 1 2 1 Z " fill="#000000" transform="translate(142,230)"/>
<path d="M0 0 C2 1 2 1 2 1 Z " fill="#000000" transform="translate(190,229)"/>
<path d="M0 0 C2 1 2 1 2 1 Z " fill="#000000" transform="translate(151,229)"/>
<path d="M0 0 C2 1 2 1 2 1 Z " fill="#000000" transform="translate(153,228)"/>
<path d="M0 0 C2 1 2 1 2 1 Z " fill="#000000" transform="translate(216,226)"/>
<path d="M0 0 C2 1 2 1 2 1 Z " fill="#000000" transform="translate(218,225)"/>
<path d="M0 0 C2 1 2 1 2 1 Z " fill="#000000" transform="translate(221,223)"/>
<path d="M0 0 C2 1 2 1 2 1 Z " fill="#000000" transform="translate(242,219)"/>
<path d="M0 0 C2 1 2 1 2 1 Z " fill="#000000" transform="translate(57,219)"/>
<path d="M0 0 C2 1 2 1 2 1 Z " fill="#000000" transform="translate(248,216)"/>
<path d="M0 0 C2 1 2 1 2 1 Z " fill="#000000" transform="translate(269,213)"/>
<path d="M0 0 C2 1 2 1 2 1 Z " fill="#000000" transform="translate(271,212)"/>
<path d="M0 0 C2 1 2 1 2 1 Z " fill="#000000" transform="translate(274,210)"/>
<path d="M0 0 C2 1 2 1 2 1 Z " fill="#000000" transform="translate(277,208)"/>
<path d="M0 0 C2 1 2 1 2 1 Z " fill="#000000" transform="translate(24,181)"/>
<path d="M0 0 C2 1 2 1 2 1 Z " fill="#000000" transform="translate(29,177)"/>
<path d="M0 0 C2 1 2 1 2 1 Z " fill="#000000" transform="translate(36,172)"/>
<path d="M0 0 C2 1 2 1 2 1 Z " fill="#000000" transform="translate(39,170)"/>
<path d="M0 0 C2 1 2 1 2 1 Z " fill="#000000" transform="translate(42,168)"/>
<path d="M0 0 C2 1 2 1 2 1 Z " fill="#000000" transform="translate(45,166)"/>
<path d="M0 0 C2 1 2 1 2 1 Z " fill="#000000" transform="translate(47,165)"/>
<path d="M0 0 C2 1 2 1 2 1 Z " fill="#000000" transform="translate(52,162)"/>
<path d="M0 0 C2 1 2 1 2 1 Z " fill="#000000" transform="translate(54,161)"/>
<path d="M0 0 C2 1 2 1 2 1 Z " fill="#000000" transform="translate(56,160)"/>
<path d="M0 0 C2 1 2 1 2 1 Z " fill="#000000" transform="translate(58,159)"/>
<path d="M0 0 C2 1 2 1 2 1 Z " fill="#000000" transform="translate(60,158)"/>
<path d="M0 0 C2 1 2 1 2 1 Z " fill="#000000" transform="translate(62,157)"/>
<path d="M0 0 C2 1 2 1 2 1 Z " fill="#000000" transform="translate(64,156)"/>
<path d="M0 0 C2 1 2 1 2 1 Z " fill="#000000" transform="translate(66,155)"/>
<path d="M0 0 C2 1 2 1 2 1 Z " fill="#000000" transform="translate(71,153)"/>
<path d="M0 0 C2 1 2 1 2 1 Z " fill="#000000" transform="translate(73,152)"/>
<path d="M0 0 C2 1 2 1 2 1 Z " fill="#000000" transform="translate(78,150)"/>
<path d="M0 0 C2 1 2 1 2 1 Z " fill="#000000" transform="translate(81,149)"/>
<path d="" fill="#000000" transform="translate(0,0)"/>
<path d="" fill="#000000" transform="translate(0,0)"/>
<path d="" fill="#000000" transform="translate(0,0)"/>
<path d="" fill="#000000" transform="translate(0,0)"/>
<path d="" fill="#000000" transform="translate(0,0)"/>
<path d="" fill="#000000" transform="translate(0,0)"/>
<path d="" fill="#000000" transform="translate(0,0)"/>
<path d="" fill="#000000" transform="translate(0,0)"/>
<path d="M0 0 C2 1 2 1 2 1 Z " fill="#000000" transform="translate(261,90)"/>
<path d="M0 0 C2 1 2 1 2 1 Z " fill="#000000" transform="translate(117,90)"/>
<path d="M0 0 C2 1 2 1 2 1 Z " fill="#000000" transform="translate(258,88)"/>
<path d="M0 0 C2 1 2 1 2 1 Z " fill="#000000" transform="translate(121,87)"/>
<path d="M0 0 C2 1 2 1 2 1 Z " fill="#000000" transform="translate(255,86)"/>
<path d="M0 0 C2 1 2 1 2 1 Z " fill="#000000" transform="translate(123,86)"/>
<path d="M0 0 C2 1 2 1 2 1 Z " fill="#000000" transform="translate(252,84)"/>
<path d="M0 0 C2 1 2 1 2 1 Z " fill="#000000" transform="translate(126,84)"/>
<path d="M0 0 C2 1 2 1 2 1 Z " fill="#000000" transform="translate(250,83)"/>
<path d="M0 0 C2 1 2 1 2 1 Z " fill="#000000" transform="translate(128,83)"/>
<path d="M0 0 C2 1 2 1 2 1 Z " fill="#000000" transform="translate(248,82)"/>
<path d="M0 0 C2 1 2 1 2 1 Z " fill="#000000" transform="translate(130,82)"/>
<path d="M0 0 C2 1 2 1 2 1 Z " fill="#000000" transform="translate(246,81)"/>
<path d="M0 0 C2 1 2 1 2 1 Z " fill="#000000" transform="translate(132,81)"/>
<path d="M0 0 C2 1 2 1 2 1 Z " fill="#000000" transform="translate(244,80)"/>
<path d="M0 0 C2 1 2 1 2 1 Z " fill="#000000" transform="translate(134,80)"/>
<path d="M0 0 C2 1 2 1 2 1 Z " fill="#000000" transform="translate(242,79)"/>
<path d="M0 0 C2 1 2 1 2 1 Z " fill="#000000" transform="translate(136,79)"/>
<path d="M0 0 C2 1 2 1 2 1 Z " fill="#000000" transform="translate(240,78)"/>
<path d="M0 0 C2 1 2 1 2 1 Z " fill="#000000" transform="translate(141,77)"/>
<path d="M0 0 C2 1 2 1 2 1 Z " fill="#000000" transform="translate(235,76)"/>
<path d="M0 0 C2 1 2 1 2 1 Z " fill="#000000" transform="translate(144,76)"/>
<path d="" fill="#000000" transform="translate(0,0)"/>
<path d="" fill="#000000" transform="translate(0,0)"/>
<path d="" fill="#000000" transform="translate(0,0)"/>
<path d="" fill="#000000" transform="translate(0,0)"/>
<path d="" fill="#000000" transform="translate(0,0)"/>
<path d="" fill="#000000" transform="translate(0,0)"/>
<path d="" fill="#000000" transform="translate(0,0)"/>
<path d="" fill="#000000" transform="translate(0,0)"/>
<path d="" fill="#000000" transform="translate(0,0)"/>
<path d="" fill="#000000" transform="translate(0,0)"/>
<path d="" fill="#000000" transform="translate(0,0)"/>
<path d="" fill="#000000" transform="translate(0,0)"/>
<path d="" fill="#000000" transform="translate(0,0)"/>
<path d="" fill="#000000" transform="translate(0,0)"/>
<path d="" fill="#000000" transform="translate(0,0)"/>
<path d="" fill="#000000" transform="translate(0,0)"/>
<path d="" fill="#000000" transform="translate(0,0)"/>
<path d="" fill="#000000" transform="translate(0,0)"/>
<path d="" fill="#000000" transform="translate(0,0)"/>
<path d="" fill="#000000" transform="translate(0,0)"/>
<path d="" fill="#000000" transform="translate(0,0)"/>
<path d="" fill="#000000" transform="translate(0,0)"/>
<path d="" fill="#000000" transform="translate(0,0)"/>
<path d="" fill="#000000" transform="translate(0,0)"/>
<path d="" fill="#000000" transform="translate(0,0)"/>
<path d="" fill="#000000" transform="translate(0,0)"/>
<path d="" fill="#000000" transform="translate(0,0)"/>
<path d="" fill="#000000" transform="translate(0,0)"/>
<path d="" fill="#000000" transform="translate(0,0)"/>
<path d="" fill="#000000" transform="translate(0,0)"/>
<path d="" fill="#000000" transform="translate(0,0)"/>
<path d="" fill="#000000" transform="translate(0,0)"/>
<path d="" fill="#000000" transform="translate(0,0)"/>
<path d="" fill="#000000" transform="translate(0,0)"/>
<path d="" fill="#000000" transform="translate(0,0)"/>
<path d="" fill="#000000" transform="translate(0,0)"/>
<path d="" fill="#000000" transform="translate(0,0)"/>
<path d="" fill="#000000" transform="translate(0,0)"/>
<path d="" fill="#000000" transform="translate(0,0)"/>
<path d="" fill="#000000" transform="translate(0,0)"/>
<path d="" fill="#000000" transform="translate(0,0)"/>
<path d="" fill="#000000" transform="translate(0,0)"/>
<path d="" fill="#000000" transform="translate(0,0)"/>
<path d="" fill="#000000" transform="translate(0,0)"/>
<path d="" fill="#000000" transform="translate(0,0)"/>
<path d="" fill="#000000" transform="translate(0,0)"/>
<path d="" fill="#000000" transform="translate(0,0)"/>
<path d="" fill="#000000" transform="translate(0,0)"/>
<path d="" fill="#000000" transform="translate(0,0)"/>
<path d="" fill="#000000" transform="translate(0,0)"/>
<path d="" fill="#000000" transform="translate(0,0)"/>
<path d="" fill="#000000" transform="translate(0,0)"/>
<path d="" fill="#000000" transform="translate(0,0)"/>
<path d="" fill="#000000" transform="translate(0,0)"/>
<path d="" fill="#000000" transform="translate(0,0)"/>
<path d="" fill="#000000" transform="translate(0,0)"/>
<path d="" fill="#000000" transform="translate(0,0)"/>
<path d="" fill="#000000" transform="translate(0,0)"/>
<path d="" fill="#000000" transform="translate(0,0)"/>
<path d="" fill="#000000" transform="translate(0,0)"/>
<path d="" fill="#000000" transform="translate(0,0)"/>
<path d="" fill="#000000" transform="translate(0,0)"/>
<path d="" fill="#000000" transform="translate(0,0)"/>
<path d="" fill="#000000" transform="translate(0,0)"/>
<path d="" fill="#000000" transform="translate(0,0)"/>
<path d="" fill="#000000" transform="translate(0,0)"/>
<path d="" fill="#000000" transform="translate(0,0)"/>
<path d="" fill="#000000" transform="translate(0,0)"/>
<path d="" fill="#000000" transform="translate(0,0)"/>
<path d="" fill="#000000" transform="translate(0,0)"/>
<path d="" fill="#000000" transform="translate(0,0)"/>
<path d="" fill="#000000" transform="translate(0,0)"/>
<path d="" fill="#000000" transform="translate(0,0)"/>
</svg>
